#!OML:ASF E:\id_vita\Project 1\Capture day 1\Session 1\Male1.ASF
:FULLY-SPECIFIED
:DEGREES
768
root -19.3272 15.8337 -3.01816 53.4004 86.0947 43.9588
lowerback -2.06102 -6.14666 -5.74736
upperback 1.52015 -8.10643 3.25757
thorax 4.01134 -4.2361 6.06311
lowerneck -5.05382 6.47122 12.4316
upperneck 6.55962 7.73018 -0.398819
head 3.64409 4.15564 -1.92671
rclavicle 3.27995e-015 -3.97569e-016
rhumerus -59.0904 -29.3133 -47.5858
rradius 11.1428
rwrist 30.5785
rhand -18.1269 34.5996
rfingers 7.12502
rthumb 8.1479 4.77666
lclavicle 3.27995e-015 -3.97569e-016
lhumerus -10.1641 1.78581 93.0008
lradius 35.9479
lwrist 7.77484
lhand -9.84795 44.9771
lfingers 7.12502
lthumb 16.1301 74.3259
rfemur -40.2248 0.160031 16.0234
rtibia 20.0857
rfoot -14.4322 -8.47728
rtoes -5.09681
lfemur 12.9846 -0.476255 -27.4301
ltibia 3.18055e-015
lfoot -16.2957 6.10329
ltoes -11.3528
769
root -19.232 15.8201 -3.00049 55.0256 86.0595 45.533
lowerback -2.11409 -6.12278 -5.89359
upperback 1.59717 -8.06693 3.25485
thorax 4.13689 -4.22592 6.1338
lowerneck -5.4858 6.53273 12.1765
upperneck 6.75889 7.74615 -0.0928737
head 3.76807 4.1759 -1.76067
rclavicle -4.69132e-014 -8.74653e-015
rhumerus -58.5237 -29.218 -48.2585
rradius 11.2998
rwrist 30.2093
rhand -18.073 34.2198
rfingers 7.12502
rthumb 8.19988 4.39895
lclavicle -4.69132e-014 -8.74653e-015
lhumerus -9.79596 2.0115 92.9883
lradius 36.1706
lwrist 7.99561
lhand -10.1925 44.8518
lfingers 7.12502
lthumb 15.7982 74.2272
rfemur -40.1146 -0.304635 16.3294
rtibia 19.8537
rfoot -14.1787 -8.13825
rtoes -4.54013
lfemur 13.2645 -0.488809 -27.4497
ltibia -5.40694e-014
lfoot -16.0837 5.96887
ltoes -12.4448
770
root -19.1328 15.8119 -2.98334 55.2231 86.1747 45.6815
lowerback -2.22043 -6.00785 -5.67598
upperback 1.74595 -7.91069 3.16159
thorax 4.28341 -4.14714 5.91132
lowerneck -6.02726 6.53268 12.3275
upperneck 7.13598 7.65813 -0.107054
head 3.59957 4.13708 -1.57536
rclavicle -1.05256e-013 1.70955e-014
rhumerus -58.4396 -29.9957 -48.106
rradius 11.3206
rwrist 30.5568
rhand -17.7352 33.9152
rfingers 7.12502
rthumb 8.52588 4.10737
lclavicle -1.05256e-013 1.70955e-014
lhumerus -9.26126 2.55584 92.8539
lradius 36.4009
lwrist 8.43466
lhand -9.08324 45.454
lfingers 7.12502
lthumb 16.8663 74.7416
rfemur -39.9261 -0.48734 16.6618
rtibia 19.7167
rfoot -13.8486 -7.86125
rtoes -3.99848
lfemur 13.6151 -0.511128 -27.2743
ltibia -6.67916e-014
lfoot -15.8737 5.7483
ltoes -13.6319
771
root -19.0295 15.8053 -2.96433 54.194 86.3474 44.6747
lowerback -2.23749 -5.90603 -5.38094
upperback 1.85162 -7.78007 3.09318
thorax 4.33245 -4.07526 5.68233
lowerneck -6.4213 6.51766 12.4503
upperneck 7.2016 7.55951 0.0259053
head 3.67794 4.10073 -1.54518
rclavicle -5.42682e-014 -2.62396e-014
rhumerus -58.5834 -30.8962 -47.5553
rradius 11.1055
rwrist 31.788
rhand -18.0654 34.2736
rfingers 7.12502
rthumb 8.20724 4.45301
lclavicle -5.42682e-014 -2.62396e-014
lhumerus -8.89468 3.01023 92.7857
lradius 36.3661
lwrist 8.39534
lhand -8.74689 45.3492
lfingers 7.12502
lthumb 17.1901 74.6088
rfemur -39.5626 -0.381402 16.9489
rtibia 19.5918
rfoot -13.538 -7.66077
rtoes -2.93413
lfemur 14.052 -0.498442 -27.0004
ltibia -5.08889e-014
lfoot -15.4268 5.50387
ltoes -15.1796
772
root -18.9255 15.7955 -2.94141 52.4372 86.4165 42.9166
lowerback -2.23692 -5.84872 -5.30263
upperback 1.90393 -7.70591 3.10669
thorax 4.36732 -4.0382 5.65757
lowerneck -6.73861 6.60467 12.4339
upperneck 7.3589 7.61666 0.169404
head 3.77553 4.14117 -1.48152
rclavicle -4.33351e-014 -2.78299e-015
rhumerus -58.3563 -31.1276 -47.692
rradius 11.0617
rwrist 32.6583
rhand -18.6774 34.4587
rfingers 7.12502
rthumb 7.61654 4.61585
lclavicle -4.33351e-014 -2.78299e-015
lhumerus -8.69035 3.42202 92.7577
lradius 36.3033
lwrist 8.35591
lhand -9.38031 44.966
lfingers 7.12502
lthumb 16.5803 74.2777
rfemur -39.2315 -0.286605 17.2634
rtibia 19.4861
rfoot -13.2986 -7.22028
rtoes -2.65687
lfemur 14.4158 -0.396953 -26.7745
ltibia -4.13472e-014
lfoot -14.8994 5.22933
ltoes -16.2646
773
root -18.821 15.7836 -2.9184 51.4403 86.4285 41.8732
lowerback -2.25699 -5.79776 -5.31647
upperback 1.94784 -7.63716 3.1431
thorax 4.4221 -4.00745 5.70528
lowerneck -7.1234 6.72837 12.4319
upperneck 7.56119 7.72268 0.13499
head 3.90801 4.1987 -1.46739
rclavicle 3.65764e-014 -1.66979e-014
rhumerus -57.4594 -30.6431 -48.9017
rradius 11.0992
rwrist 32.1213
rhand -18.8905 34.2408
rfingers 7.12502
rthumb 7.41084 4.39062
lclavicle 3.65764e-014 -1.66979e-014
lhumerus -8.51431 3.74862 92.7709
lradius 36.2543
lwrist 8.42474
lhand -10.1482 44.8513
lfingers 7.12502
lthumb 15.8409 74.2233
rfemur -38.9453 -0.116693 17.4128
rtibia 19.5246
rfoot -13.153 -6.73847
rtoes -3.00268
lfemur 14.7713 -0.306177 -26.6183
ltibia 3.18055e-014
lfoot -14.7771 4.88356
ltoes -15.1024
774
root -18.7093 15.7757 -2.9012 54.9531 86.8268 45.3662
lowerback -2.30232 -5.82184 -5.02847
upperback 2.00646 -7.67684 3.14215
thorax 4.47486 -4.0204 5.53368
lowerneck -7.59903 6.7423 12.5183
upperneck 7.77236 7.65852 0.115799
head 4.05126 4.1764 -1.47057
rclavicle -2.68359e-014 -2.10712e-014
rhumerus -57.0066 -30.9166 -49.2105
rradius 10.9167
rwrist 32.2612
rhand -18.9485 34.0799
rfingers 7.12502
rthumb 7.35488 4.22769
lclavicle -2.68359e-014 -2.10712e-014
lhumerus -8.22384 3.88132 92.7828
lradius 35.9588
lwrist 8.46181
lhand -10.3278 44.9444
lfingers 7.12502
lthumb 15.668 74.33
rfemur -38.5681 0.082963 17.3802
rtibia 19.8069
rfoot -12.7931 -6.71898
rtoes -1.29517
lfemur 15.2055 -0.657771 -26.3175
ltibia 1.27222e-014
lfoot -14.5319 4.48428
ltoes -14.4997
775
root -18.5908 15.764 -2.87982 61.0598 87.0457 51.5788
lowerback -2.31715 -5.80763 -5.00423
upperback 2.09268 -7.65541 3.0828
thorax 4.55881 -4.0114 5.45397
lowerneck -7.91848 6.6697 12.8012
upperneck 7.87131 7.49967 -0.12498
head 4.14456 4.09791 -1.58572
rclavicle 1.05753e-013 -2.70347e-014
rhumerus -57.3439 -32.155 -48.1442
rradius 10.7832
rwrist 33.8071
rhand -19.04 33.9716
rfingers 7.12502
rthumb 7.26653 4.11639
lclavicle 1.05753e-013 -2.70347e-014
lhumerus -7.93667 4.10479 92.8781
lradius 35.5879
lwrist 8.34639
lhand -10.5618 44.6236
lfingers 7.12502
lthumb 15.4426 74.0268
rfemur -38.0699 0.257886 17.1821
rtibia 20.2767
rfoot -12.4061 -6.6092
rtoes 1.69093
lfemur 15.7558 -0.989879 -26.2127
ltibia 6.67916e-014
lfoot -14.2349 4.09823
ltoes -14.2928
776
root -18.4687 15.7499 -2.85397 69.8198 86.9895 60.4416
lowerback -2.30193 -5.90991 -5.43043
upperback 2.12387 -7.77899 3.12725
thorax 4.66746 -4.09143 5.72228
lowerneck -8.0988 6.66377 12.6244
upperneck 7.91997 7.48252 -0.116952
head 4.18047 4.08551 -1.55168
rclavicle 6.25178e-014 -8.34896e-015
rhumerus -57.2101 -32.8196 -47.4518
rradius 10.669
rwrist 34.947
rhand -19.0737 34.2465
rfingers 7.12502
rthumb 7.23399 4.39015
lclavicle 6.25178e-014 -8.34896e-015
lhumerus -7.79164 4.87391 93.0699
lradius 35.5103
lwrist 8.38629
lhand -10.9817 44.18
lfingers 7.12502
lthumb 15.0382 73.6138
rfemur -37.5962 0.193141 16.9015
rtibia 20.8803
rfoot -12.4665 -6.26763
rtoes 2.26223
lfemur 16.2633 -1.31849 -26.3773
ltibia 2.8625e-014
lfoot -13.9614 3.81651
ltoes -13.1202
777
root -18.3457 15.7463 -2.82855 77.489 87.0936 68.0335
lowerback -2.37702 -6.09696 -5.68424
upperback 2.04443 -8.0253 3.33752
thorax 4.73231 -4.22711 6.05307
lowerneck -8.28194 6.78269 12.1475
upperneck 8.17919 7.64675 0.07857
head 4.27418 4.16995 -1.39771
rclavicle 2.10712e-014 -7.95139e-016
rhumerus -56.8811 -33.286 -46.7387
rradius 10.4732
rwrist 36.1703
rhand -19.0535 34.5094
rfingers 7.12502
rthumb 7.2535 4.65372
lclavicle 2.10712e-014 -7.95139e-016
lhumerus -7.72193 6.04053 93.2277
lradius 35.5512
lwrist 8.5937
lhand -10.7091 43.5935
lfingers 7.12502
lthumb 15.3007 73.0075
rfemur -37.4798 0.107611 16.9212
rtibia 21.752
rfoot -11.9217 -5.9054
rtoes 0.905771
lfemur 16.5991 -1.68262 -26.2714
ltibia -1.90833e-014
lfoot -13.6889 3.48594
ltoes -12.7099
778
root -18.2217 15.7621 -2.80999 86.6737 87.145 77.0576
lowerback -2.49636 -6.19499 -5.78215
upperback 1.90095 -8.15308 3.45044
thorax 4.70052 -4.29199 6.20714
lowerneck -8.13202 6.79554 11.8771
upperneck 8.15533 7.71249 0.134489
head 4.23279 4.19558 -1.34108
rclavicle 4.94974e-014 1.51076e-014
rhumerus -56.7057 -33.6408 -46.3477
rradius 10.4662
rwrist 36.9515
rhand -18.9343 34.5298
rfingers 7.12502
rthumb 7.36858 4.67812
lclavicle 4.94974e-014 1.51076e-014
lhumerus -7.63894 6.95681 93.4205
lradius 35.2551
lwrist 8.4408
lhand -10.4717 42.1242
lfingers 7.12502
lthumb 15.5293 71.5206
rfemur -37.4851 0.053822 16.813
rtibia 22.3392
rfoot -9.69311 -5.31676
rtoes 0.326761
lfemur 16.8372 -2.10472 -26.1747
ltibia 1.27222e-014
lfoot -13.3384 2.94295
ltoes -12.3389
779
root -18.0614 15.7761 -2.79798 90.057 86.6913 80.6551
lowerback -2.74037 -6.17904 -6.17305
upperback 1.96137 -8.10181 3.34763
thorax 4.93593 -4.28498 6.28941
lowerneck -7.78353 6.74808 11.4365
upperneck 7.77574 7.73566 0.386658
head 4.03168 4.1937 -1.21603
rclavicle 4.8901e-014 -2.46493e-014
rhumerus -56.1219 -33.4111 -46.9123
rradius 10.5368
rwrist 36.6294
rhand -19.0744 34.3409
rfingers 7.12502
rthumb 7.23332 4.48451
lclavicle 4.8901e-014 -2.46493e-014
lhumerus -7.58458 7.57394 93.6586
lradius 34.758
lwrist 8.13026
lhand -10.54 41.9074
lfingers 7.12502
lthumb 15.4636 71.3089
rfemur -37.0536 -0.750736 16.5172
rtibia 22.605
rfoot -7.90619 -3.25774
rtoes 2.56865
lfemur 17.6416 -2.19104 -26.6724
ltibia 0
lfoot -13.1776 2.50725
ltoes -11.0359
780
root -17.9377 15.7958 -2.76979 97.2417 87.0602 87.5803
lowerback -2.89412 -6.21973 -5.91121
upperback 1.81668 -8.16894 3.57765
thorax 4.87813 -4.30897 6.37111
lowerneck -7.83301 6.70788 11.4383
upperneck 7.79177 7.69307 0.149787
head 4.05128 4.16041 -1.28984
rclavicle 6.08281e-014 -2.94201e-014
rhumerus -55.4761 -33.2679 -47.4836
rradius 10.4995
rwrist 36.1369
rhand -19.454 34.0489
rfingers 7.12502
rthumb 6.86693 4.18024
lclavicle 6.08281e-014 -2.94201e-014
lhumerus -7.52408 8.09472 93.8364
lradius 34.245
lwrist 7.89439
lhand -10.665 43.4154
lfingers 7.12502
lthumb 15.3432 72.8261
rfemur -37.1311 -0.173006 16.5473
rtibia 22.655
rfoot -6.51298 -2.66135
rtoes 5.47356
lfemur 17.716 -2.54119 -26.0655
ltibia 2.22639e-014
lfoot -12.6538 1.90095
ltoes -9.15985
